<?xml version="1.0" encoding="UTF-8" standalone="no"?>
<svg
   xmlns:dc="http://purl.org/dc/elements/1.1/"
   xmlns:cc="http://creativecommons.org/ns#"
   xmlns:rdf="http://www.w3.org/1999/02/22-rdf-syntax-ns#"
   xmlns:svg="http://www.w3.org/2000/svg"
   xmlns="http://www.w3.org/2000/svg"
   xmlns:sodipodi="http://sodipodi.sourceforge.net/DTD/sodipodi-0.dtd"
   xmlns:inkscape="http://www.inkscape.org/namespaces/inkscape"
   width="240mm"
   height="120mm"
   viewBox="0 0 240 120"
   version="1.1"
   id="svg8"
   inkscape:version="1.0.2 (e86c870879, 2021-01-15)"
   sodipodi:docname="alsdfhkajdh.svg">
  <defs
     id="defs2" />
  <sodipodi:namedview
     id="base"
     pagecolor="#ffffff"
     bordercolor="#666666"
     borderopacity="1.0"
     inkscape:pageopacity="0.0"
     inkscape:pageshadow="2"
     inkscape:zoom="0.99437388"
     inkscape:cx="283.27061"
     inkscape:cy="182.72055"
     inkscape:document-units="mm"
     inkscape:current-layer="layer1"
     showgrid="false"
     showborder="true"
     width="200mm"
     showguides="true"
     inkscape:guide-bbox="true"
     inkscape:window-width="683"
     inkscape:window-height="361"
     inkscape:window-x="0"
     inkscape:window-y="384"
     inkscape:window-maximized="1"
     inkscape:document-rotation="0">
    <inkscape:grid
       type="xygrid"
       id="grid815"
       units="mm"
       spacingx="10"
       spacingy="10"
       empspacing="4"
       dotted="false" />
  </sodipodi:namedview>
  <metadata
     id="metadata5">
    <rdf:RDF>
      <cc:Work
         rdf:about="">
        <dc:format>image/svg+xml</dc:format>
        <dc:type
           rdf:resource="http://purl.org/dc/dcmitype/StillImage" />
        <dc:title></dc:title>
      </cc:Work>
    </rdf:RDF>
  </metadata>
  <g
     inkscape:label="Layer 1"
     inkscape:groupmode="layer"
     id="layer1"
     transform="translate(0,-177)">
    <path
       style="fill:none;stroke:#000000;stroke-width:0.264583px;stroke-linecap:butt;stroke-linejoin:miter;stroke-opacity:1"
       d="m 91.671803,245.93941 c -6.316485,-4.55319 -12.563631,-9.12204 -19.461355,-12.79854 -1.735545,-0.92505 -3.590039,-1.60761 -5.371203,-2.44144 -3.298378,-1.54412 -6.544824,-3.19974 -9.866905,-4.69217 -2.859181,-1.28448 -5.753648,-2.49215 -8.671825,-3.63628 -3.154317,-1.23671 -6.145662,-2.08724 -9.162317,-3.52374 -0.376947,-0.1795 -0.74685,-0.37343 -1.120278,-0.56014 -0.159879,-0.0799 -0.523523,0.0386 -0.517649,-0.14003 0.02813,-0.85573 3.278256,-2.07015 4.278778,-2.56969 4.869815,-2.43141 12.434827,-6.84021 18.387489,-8.09109 2.139008,-0.44949 4.357552,-0.35986 6.540907,-0.46165 1.119063,-0.0522 2.247799,-0.1272 3.360833,0 4.367524,0.49914 8.66635,5.76804 10.082493,9.66238"
       id="path8" />
  </g>
</svg>
